<svg xmlns="http://www.w3.org/2000/svg" width="321" height="98" fill="none" viewBox="0 0 321 98"><path fill="#fff" d="M61.05 29.28H36.37v-2.67c12.47-.91 19.49-4.75 19.49-9.69 0-2.41-1.56-4.36-4.55-5.86h9.09V4.55H36.37V0H24.68v4.55H.65v6.51h9.09c-2.99 1.5-4.55 3.45-4.55 5.86 0 4.94 7.02 8.78 19.49 9.69v2.67H0v6.83h9.87C5.58 38 3.25 40.73 3.25 44.18c0 7.35 10.52 12.49 27.28 12.49s27.28-5.14 27.28-12.49c0-3.45-2.34-6.18-6.62-8.07h9.87v-6.83zM14.93 43.27c0-2.08 1.43-3.84 4.29-5.07 2.73-1.17 6.89-1.82 11.3-1.82s8.57.65 11.3 1.82c2.86 1.24 4.29 2.99 4.29 5.07s-1.36 3.84-4.29 5.08c-2.73 1.17-6.89 1.82-11.3 1.82s-8.57-.65-11.3-1.82c-2.92-1.24-4.29-2.99-4.29-5.08m1.95-27.26c0-1.24.71-2.34 2.4-3.12 2.47-1.17 6.76-1.82 11.24-1.82s8.77.65 11.24 1.82c1.69.78 2.4 1.89 2.4 3.12s-.71 2.34-2.4 3.12c-2.47 1.24-6.69 1.82-11.24 1.82s-8.77-.59-11.24-1.82c-1.69-.78-2.4-1.89-2.4-3.12m49.37.71c0 9.11 8.38 15.29 19.16 15.29s19.16-6.18 19.16-15.29S96.13 1.43 85.41 1.43 66.25 7.61 66.25 16.72m3.9 26.29h41.7v12.36h11.56V35.85H70.14v7.16zm7.53-26.35c0-5.34 3.38-8.85 7.73-8.85s7.73 3.51 7.73 8.85-3.25 8.98-7.73 8.98-7.73-3.64-7.73-8.98m34.17 16.59h11.56V2.6h-11.56zm20.66 18.87h30.08v3.25h10.72V27.98h5v27.39h10.72V2.6h-10.72v18.22h-5V2.6h-10.72v42.68h-19.23V9.37h14.62V2.6h-25.46v49.52zm61.71-41.06h6.5a12.3 12.3 0 0 0-3.7 8.78c0 7.94 7.21 13.99 17.86 13.99s17.86-6.05 17.86-13.99a12.3 12.3 0 0 0-3.7-8.78h6.5V4.55H220.6V0h-11.43v4.55h-14.94zm3.9 33.25h41.83v11.06h11.43V37.15h-53.26zm9.74-25.18c0-5.01 3.05-8.26 7.01-8.26s7.01 3.25 7.01 8.26-2.92 8.33-7.01 8.33-7.01-3.38-7.01-8.33m32.09 15.42h11.43v-8.2h7.15v-7.16h-7.15V2.6h-11.43zm19.88 20.82h61.06v-7.16h-5.2V2.6h-53.92v7.16h42.74v38.45h-7.53V19.19h-10.39v29.02h-6.5V19.19H269.7v29.02h-9.87zM15.5 96.78h4.99V74H15.5v8.72H7.03V74H1.98v22.78h5.05v-9.92h8.47zM41 85.59c0 3.46-1.58 7.5-6.04 7.5s-6.07-4.17-6.07-7.73c0-2.02.5-3.89 1.4-5.25a5.4 5.4 0 0 1 4.64-2.45c1.83 0 6.07.77 6.07 7.93m5.25-.26c0-3.44-1.04-6.39-3.01-8.52-2.03-2.2-4.9-3.36-8.31-3.36s-6.28 1.18-8.29 3.4c-1.94 2.15-2.97 5.11-2.97 8.57 0 6.99 4.57 11.88 11.13 11.88s11.45-4.81 11.45-11.97m16.92 11.45h4.7V74h-4.86c.02 1.09.23 11.39.32 15v.35l-.17-.3-8.88-15.04h-4.83v22.78h4.95l-.39-14.8v-.34l.17.29 8.98 14.85zm25.75 0h3.57V84.15H82.43v4.01h5.71l-.02.11c-.68 3.06-2.76 4.82-5.71 4.82-5.28 0-6.07-4.97-6.07-7.93 0-4.7 2.35-7.5 6.3-7.5 2.54 0 4.29 1.31 4.95 3.7l4.81-.31c-.44-3.53-3.27-7.6-9.85-7.6-3.43 0-6.33 1.16-8.37 3.36-1.99 2.15-3.05 5.11-3.05 8.58 0 7.46 3.9 11.91 10.44 11.91a8.4 8.4 0 0 0 6.95-3.31l.14-.19.27 2.98zm7.26 0h4.99V74h-4.99zm28.93 0-9.6-13.71.05-.05 8.98-9.02h-6.41l-8.23 8.92V74h-4.96v22.78h4.96v-8.17l.03-.03 2.19-2.16.06.09 6.77 10.27h6.16m26.91-1.54c2.21-2.05 2.21-4.69 2.21-7.25V74h-5.02v12.85c0 3.48 0 6.24-4.06 6.24s-4.19-2.83-4.19-6.11V74h-5.02v14.84a12 12 0 0 0 .51 3.87c.77 2.09 2.86 4.59 8.47 4.59 1.45 0 5.05-.2 7.09-2.06m19.6 1.54h4.7V74h-4.86l.32 15v.35l-.17-.3-8.88-15.04h-4.83v22.78h4.96l-.39-14.8v-.34l.17.29 8.98 14.85zm8.62 0h4.99V74h-4.99zm19.72 0L207.92 74h-5.37l-4.88 16.91-.09-.3-4.86-16.62h-5.43l8 22.78h4.65zm10.14 0h16.76v-4.01h-11.8v-6h10.76v-3.95h-10.76v-4.77h11.58V74H210.1zm32.55-15.71c0 3.28-2.9 3.28-5.23 3.28h-2.79v-6.16h4.16c1.91 0 3.86.34 3.86 2.89m.93 4.85-.39-.09.39-.09c2.48-.56 3.96-2.62 3.96-5.54q0-2.42-1.34-4.04c-1.66-2.01-4.56-2.18-7.15-2.18h-9.4v22.78h4.99v-8.45h2.85c.77 0 2.07 0 2.67.27 1.47.66 1.67 2.27 1.81 3.45l.07.49c.23 1.55.48 2.95 1.33 4.25h5.2c-1.08-1.48-1.38-3.44-1.66-5.33l-.1-.68c-.33-2.15-.85-4.3-3.21-4.84m11.94-6.07c0-1.57 1.31-2.43 3.7-2.43 2.9 0 4.34 1.11 4.54 3.51l4.93-.38c-.26-4.52-3.55-7.11-9.04-7.11-3.42 0-9.14.89-9.14 6.83 0 3.68 2.11 5.64 7.28 6.77l1.63.36c2.33.52 4.53 1.01 4.53 2.98 0 .83-.41 2.76-4.19 2.76-3.2 0-4.92-1.3-5-3.77l-4.99.28c.25 5.06 3.54 7.63 9.76 7.63 2.87 0 9.53-.71 9.53-7.26 0-5.44-4.82-6.5-6.63-6.9l-2.99-.68c-2.43-.55-3.91-1-3.91-2.59m16.85 16.92h4.99V74h-4.99zm18.84-18.7h6.86V74h-18.68v4.08h6.86v18.7h4.96zM318.91 74h-5.48l-4.74 9.48-.08-.16-4.49-9.31h-5.52l7.68 14.32v8.46h4.96v-8.51l7.68-14.27z"/></svg>